<?xml version="1.0" encoding="UTF-8"?>
<svg width="413.87" height="417.38" version="1.0" viewBox="0 0 388 391.29" xmlns="http://www.w3.org/2000/svg" xmlns:cc="http://creativecommons.org/ns#" xmlns:dc="http://purl.org/dc/elements/1.1/" xmlns:rdf="http://www.w3.org/1999/02/22-rdf-syntax-ns#">
<defs>
<linearGradient id="d" x1="-772.01" x2="-886.76" y1="742.5" y2="742.5" gradientTransform="matrix(-.84033 -.84033 -.84033 .84033 214.12 -1075.4)" gradientUnits="userSpaceOnUse">
<stop stop-color="#fff" offset="0"/>
<stop stop-color="#fff" stop-opacity="0" offset="1"/>
</linearGradient>
<linearGradient id="c" x1="386.39" x2="385.04" y1="63.871" y2="613.94" gradientTransform="matrix(.70711 -.70711 .70711 .70711 -126.18 372.21)" gradientUnits="userSpaceOnUse">
<stop stop-color="#ffe800" offset="0"/>
<stop stop-color="#dfb300" offset="1"/>
</linearGradient>
<linearGradient id="b" x1="409.38" x2="212.93" y1="358.3" y2="161.84" gradientUnits="userSpaceOnUse">
<stop stop-color="#dfb300" offset="0"/>
<stop stop-color="#dfb300" offset=".5"/>
<stop stop-color="#dfb300" offset="1"/>
</linearGradient>
<linearGradient id="a" x1="403.63" x2="382.9" y1="448.35" y2="448.35" gradientTransform="matrix(.70711 -.70711 .70711 .70711 -126.18 372.21)" gradientUnits="userSpaceOnUse">
<stop stop-color="#ffe800" stop-opacity=".39216" offset="0"/>
<stop stop-color="#dfb300" stop-opacity=".39216" offset="1"/>
</linearGradient>
</defs>
<g transform="translate(-192.2,-142.77)">
<path d="m227.2 177.73c-46.65 46.65-46.67 122.4-0.03 169.04 30.92 30.92 74.6 41.33 114.12 31.27l22.3 22.29 39.67 4.86 4.91 39.73 39.68 4.86 4.89 39.7 39.72 4.91 4.86 39.68 70.53-5.91 5.66-0.46 1.07-12.21 5.62-63.77-22.07-22.07-22.03-22.03-22.05-22.05-22.03-22.02-22.05-22.05-22.05-22.05-22.05-22.05c12.55-40.94 2.66-87.25-29.71-119.62-46.64-46.64-122.32-46.69-168.96-0.05zm24.21 24.32c21.41-21.41 52.07-25.54 68.44-9.17s12.26 47.05-9.14 68.46c-21.41 21.41-52.07 25.49-68.44 9.12s-12.27-47.01 9.14-68.41z" color="#000000" fill="url(#c)"/>
<path d="m388.43 339.03c-1.68 1.68-2.88 3.59-3.69 5.59-0.74 1.82-1.28 3.93-1.28 6.32 0 2.4 0.52 4.53 1.26 6.35 0.77 1.9 2.01 3.91 3.69 5.59l163.12 163.12 3.27 3.27 4.62-0.38 5.68-0.46 8.39-0.71 0.75-8.4 1.06-12.19 0.4-4.64-3.29-3.3-160.16-160.16c-1.68-1.68-3.68-2.91-5.59-3.69-1.81-0.73-3.92-1.28-6.32-1.28s-4.51 0.55-6.32 1.28c-1.91 0.78-3.91 2.01-5.59 3.69z" color="#000000" fill="url(#a)"/>
<path d="m239.44 192.85c-2.29 2.41-4.43 4.92-6.43 7.49 2.5-3.23 5.25-6.31 8.22-9.28-0.6 0.6-1.21 1.18-1.79 1.79zm3.62-3.58c4.29-4.07 8.84-7.67 13.61-10.83-4.76 3.15-9.33 6.77-13.61 10.83zm-11.62 13.17c-0.93 1.27-1.81 2.53-2.67 3.82 0.85-1.29 1.74-2.56 2.67-3.82zm-2.81 4.05c-0.89 1.35-1.76 2.74-2.58 4.13 0.82-1.4 1.68-2.77 2.58-4.13zm-2.58 4.13c-1.66 2.8-3.16 5.65-4.51 8.57 1.35-2.91 2.86-5.78 4.51-8.57zm-4.51 8.57c-1.35 2.92-2.55 5.9-3.6 8.91 1.05-3.01 2.25-6 3.6-8.91zm-3.6 8.91c-1.05 3-1.97 6.05-2.72 9.12 0.75-3.08 1.67-6.12 2.72-9.12zm-2.72 9.12c-0.31 1.27-0.58 2.53-0.84 3.8 0.26-1.27 0.53-2.53 0.84-3.8zm43.53-60.1c1.38-0.87 2.79-1.69 4.2-2.48-1.41 0.79-2.82 1.61-4.2 2.48zm8.49-4.73c1.44-0.71 2.88-1.37 4.35-2.01-1.46 0.63-2.92 1.3-4.35 2.01zm17.89-6.76c1.53-0.41 3.06-0.77 4.6-1.11-1.54 0.34-3.07 0.7-4.6 1.11zm4.62-1.13c1.54-0.34 3.09-0.62 4.64-0.88-1.55 0.26-3.1 0.54-4.64 0.88zm-75.52 77.34c-0.16 0.79-0.29 1.58-0.42 2.36 0.13-0.77 0.27-1.58 0.42-2.36zm-0.42 2.36c-0.13 0.78-0.27 1.55-0.38 2.33 0.11-0.79 0.24-1.55 0.38-2.33zm-0.69 4.67c-0.09 0.78-0.17 1.57-0.24 2.36 0.07-0.78 0.15-1.58 0.24-2.36zm-0.44 4.73c-0.06 0.78-0.1 1.56-0.13 2.34 0.03-0.79 0.07-1.56 0.13-2.34zm93.47-91.26c1.18-0.06 2.37-0.1 3.56-0.12-1.2 0.02-2.37 0.06-3.56 0.12zm4.71-0.12c0.78 0 1.57 0.01 2.36 0.03-0.79-0.02-1.57-0.03-2.36-0.03zm-98.18 105.52c0.11 1.58 0.25 3.16 0.44 4.73-0.19-1.57-0.33-3.16-0.44-4.73zm109.98-104.81c1.56 0.19 3.12 0.4 4.68 0.66-1.56-0.26-3.12-0.47-4.68-0.66zm-108.85 114.2c0.13 0.78 0.26 1.58 0.42 2.36-0.15-0.77-0.29-1.58-0.42-2.36zm0.42 2.36c0.14 0.77 0.31 1.54 0.48 2.3-0.17-0.77-0.33-1.52-0.48-2.3zm1.61 6.92c0.21 0.77 0.41 1.55 0.64 2.32-0.23-0.76-0.44-1.55-0.64-2.32zm1.35 4.57c0.24 0.76 0.49 1.51 0.75 2.26-0.27-0.75-0.51-1.5-0.75-2.26zm0.75 2.26c0.25 0.71 0.5 1.43 0.77 2.14-0.26-0.7-0.52-1.43-0.77-2.14zm1.7 4.48c0.3 0.75 0.61 1.48 0.93 2.21-0.32-0.73-0.63-1.47-0.93-2.21zm0.93 2.21c0.32 0.74 0.63 1.48 0.97 2.21-0.34-0.72-0.65-1.47-0.97-2.21zm0.97 2.21c0.34 0.73 0.7 1.45 1.06 2.17-0.36-0.72-0.72-1.44-1.06-2.17zm2.14 4.31c0.38 0.72 0.78 1.43 1.17 2.15-0.39-0.71-0.79-1.43-1.17-2.15zm135.57-131.54c1.12 0.63 2.23 1.28 3.34 1.97-1.11-0.69-2.22-1.34-3.34-1.97zm-131.92 137.88c0.38 0.61 0.77 1.23 1.17 1.84-0.4-0.61-0.79-1.22-1.17-1.84zm1.57 2.46c0.42 0.62 0.85 1.24 1.28 1.85-0.43-0.62-0.86-1.23-1.28-1.85zm2.72 3.86c0.95 1.3 1.95 2.57 2.98 3.83-1.02-1.25-2.03-2.54-2.98-3.83zm139.45-136.36c1.3 1.01 2.61 2.04 3.87 3.12-1.27-1.09-2.56-2.1-3.87-3.12zm-126.15 151.04c38.64 34.9 98.35 33.74 135.59-3.49 37.23-37.24 38.39-96.96 3.49-135.59 31.41 35.32-20.5 44.27-57.68 81.45-37.17 37.17-46.08 89.04-81.4 57.63z" color="#000000" fill="url(#b)"/>
<path d="m239.44 192.87c-36.65 38.56-36.03 99.58 1.8 137.42 38.44 38.43 46.67-15.69 85.1-54.13 38.43-38.43 92.59-46.69 54.15-85.12-38.43-38.44-100.81-38.41-139.25 0.03-0.6 0.6-1.22 1.19-1.8 1.8zm11.99 9.17c21.4-21.41 52.05-25.51 68.42-9.14s12.27 47.02-9.14 68.43c-21.4 21.4-52.05 25.5-68.42 9.13s-12.27-47.02 9.14-68.42z" color="#000000" fill="url(#d)"/>
</g>
<metadata><rdf:RDF><cc:Work>
<dc:format>image/svg+xml</dc:format>
<dc:type rdf:resource="http://purl.org/dc/dcmitype/StillImage"/>
<cc:license rdf:resource="http://creativecommons.org/publicdomain/zero/1.0/"/>
<dc:publisher><cc:Agent rdf:about="http://openclipart.org/">
<dc:title>Openclipart</dc:title>
</cc:Agent></dc:publisher><dc:title/>
<dc:date>2007-02-27T15:15:43</dc:date>
<dc:description>A key icon.</dc:description>
<dc:source>https://openclipart.org/detail/3330/key-by-barretr</dc:source>
<dc:subject></dc:subject></cc:Work>
<cc:License rdf:about="http://creativecommons.org/publicdomain/zero/1.0/">
<cc:permits rdf:resource="http://creativecommons.org/ns#Reproduction"/>
<cc:permits rdf:resource="http://creativecommons.org/ns#Distribution"/>
<cc:permits rdf:resource="http://creativecommons.org/ns#DerivativeWorks"/>
</cc:License></rdf:RDF></metadata></svg>
