<?xml version="1.0" encoding="utf-8"?>
<!-- Generator: Adobe Illustrator 15.1.0, SVG Export Plug-In . SVG Version: 6.00 Build 0)  -->
<!DOCTYPE svg PUBLIC "-//W3C//DTD SVG 1.1//EN" "http://www.w3.org/Graphics/SVG/1.1/DTD/svg11.dtd">
<svg version="1.1" id="Logo" xmlns="http://www.w3.org/2000/svg" xmlns:xlink="http://www.w3.org/1999/xlink" x="0px" y="0px"
	 width="846px" height="165px" viewBox="0 0 846 165" enable-background="new 0 0 846 165" xml:space="preserve">
<rect x="5.383" y="28.888" fill="#ED7113" width="106.795" height="103.881"/>
<rect x="144.272" y="6.13" fill="#41786B" width="10.507" height="152.38"/>
<g id="i-kirjain">
	<rect x="383.535" y="39.979" fill="#41786B" width="23.929" height="85.083"/>
	<rect x="383.096" y="8.464" fill="#41786B" width="24.805" height="20.036"/>
</g>
<g id="o-kirjain">
	<path fill="#41786B" d="M230.497,37.498c-25.677,0-47.122,17.105-47.122,45.005c0,27.902,20.568,45.007,47.122,45.007
		c26.549,0,47.269-15.903,47.269-45.154C277.766,53.109,258.509,37.498,230.497,37.498z M230.35,109.274
		c-22.031,0-22.468-23.927-22.468-28.448c0-10.066,3.942-25.385,23.489-25.385c19.549,0,22.176,16.072,22.176,25.385
		C253.547,90.141,252.378,109.274,230.35,109.274z"/>
</g>
<path fill="#41786B" d="M285.789,39.979c0,0,0.803,92.49,0.803,118.53c0,0,11.16,0,22.537,0c0,0,0.294-15.822,0.294-33.911
	c26.843,0,65.36,8.17,65.36-42.096C374.783,44.884,345.75,40,322.125,40C308.25,40,296.909,39.979,285.789,39.979z M309.128,107.085
	c0-23.632,0-49.404,0-49.404c16.633,0,42.894-5.057,42.894,24.608C352.022,113.117,326.346,107.085,309.128,107.085z"/>
<g id="n-kirjain">
	<path fill="#41786B" d="M503.333,125.031c0-79.531,0-85.242-30.333-85.242c-11.777,0-27.201,0.19-49.97,0.19
		c0,0-0.03,71.592-0.03,85.021c0,0,7.791,0.031,21.984,0.031c0-16.73,0.016-52.568,0.016-67.74c10.166,0,17.147,0.064,28.239,0.064
		c9.012,0,7.511,21.891,7.511,67.676C489.509,125.031,503.333,125.031,503.333,125.031z"/>
</g>
<g id="s-kirjain">
	<path fill="#EE751E" d="M595.954,39.789c-22.34,0-33.654,0-50.285,0c-25.385,0-30.833,13.222-30.833,26.447
		c0,27.24,12.588,24.513,55.178,24.513c9.115,0,8.954,17.499,0,17.499c-12.545,0-50.617,0.058-52.65,0.058
		c0,9.913,0.01,16.653,0.01,16.653c12.221,0,53.127,0.072,68.115,0.072c7.097,0,15.136-11.614,15.136-26.597
		c0-19.938-15.372-25.093-21.19-25.093c-15.281,0-17.124-0.102-33.702-0.102c-9.102,0-9.102-15.656,0-15.656
		c23.926,0,47.985-0.002,50.318-0.002C596.05,49.995,595.954,39.789,595.954,39.789z"/>
	<path fill="#ED7113" d="M786.193,39.789c-22.336,0-33.646,0-50.285,0c-25.376,0-30.824,13.222-30.824,26.447
		c0,27.24,12.583,24.513,55.178,24.513c9.111,0,8.949,17.499,0,17.499c-12.545,0-50.622,0.058-52.655,0.058
		c0,9.913,0.005,16.653,0.005,16.653c22.373,0,58.09,0,68.374,0c7.097,0,14.882-11.542,14.882-26.524
		c0-19.938-15.371-25.093-21.195-25.093c-15.276,0-17.119-0.102-33.697-0.102c-9.102,0-9.102-15.656,0-15.656
		c23.927,0,47.981-0.002,50.318-0.002C786.293,49.995,786.193,39.789,786.193,39.789z"/>
</g>
<g id="y-kirjain">
	<path fill="#ED7113" d="M610.224,39.609c0,35.778,0,46.86,0,62.617c0,25.594,21.076,22.733,58.194,22.733
		c0,4.461-2.513,15.681-13.719,15.681c-13.419,0-24.1-0.252-42.116-0.252c0,9.339,0.153,16.626,0.153,16.626
		c23.927,0,49.107,0,49.107,0c24.323,0,30.98-13.639,30.98-52.784c0-20.302,0-38.979,0-64.44c-9.919,0-24.212,0-24.212,0
		c0,22.252-0.189,66.726-0.189,66.726c-9.624,0-29.945,0.38-29.945,0.38c-5.249,0-4.783-2.665-4.783-36.958
		c0-13.061-0.101-30.327-0.101-30.327C626.008,39.609,610.224,39.609,610.224,39.609z"/>
</g>
<rect x="795.25" y="40" fill="none" width="44.75" height="29"/>
<text transform="matrix(1 0 0 1 795.25 61.4795)" font-family="'ArialMT'" font-size="30">TM</text>
</svg>
