<?xml version="1.0" encoding="UTF-8" standalone="no"?>
<svg width="32" height="32" viewBox="0 0 8.4666662 8.4666665" xmlns="http://www.w3.org/2000/svg">
<g transform="translate(-9.7289751,-121.73262)">
<path d="m 11.551203,125.61728 c 0.552651,0.0429 0.294536,1.30928 0.908082,0.92267 0.296476,-0.37127 0.515821,-0.79758 0.837983,-1.15242 0.773344,-1.00006 1.624927,-1.9926 2.74076,-2.6189 0.456516,-0.19321 0.975893,-0.17023 1.449808,-0.16235 0.551141,0.41891 -0.331469,0.8272 -0.521259,1.19629 -1.305536,1.53428 -2.649871,3.05023 -3.778083,4.7211 -0.489798,0.57321 -0.697872,0.76928 -1.296418,0.80709 -0.819208,-0.0241 -1.027724,-0.4698 -1.185313,-1.01126 -0.235797,-0.65851 -0.511415,-1.34745 -0.435908,-2.06074 0.333107,-0.43407 0.768463,-0.59757 1.280348,-0.64148 z"
style="fill: #00000"/>
</g></svg>
