<?xml version="1.0" encoding="UTF-8" standalone="no"?>
<!-- Generator: Adobe Illustrator 27.7.0, SVG Export Plug-In . SVG Version: 6.00 Build 0)  -->

<svg
   version="1.1"
   id="Optimized"
   x="0px"
   y="0px"
   viewBox="0 0 440.33167 510.23627"
   xml:space="preserve"
   width="440.33167"
   height="510.23627"
   xmlns="http://www.w3.org/2000/svg"
   xmlns:svg="http://www.w3.org/2000/svg"><polygon
   style="fill:#020203"
   points="558.09418,491.72476 512.54724,488.23859 542.36884,537.3009 "
   id="polygon2"
   transform="translate(-200.77905,-42.519653)" />
<path
   style="fill:#020203"
   d="m 77.017547,170.70272 c -1.11761,-1.09754 1.45548,8.96841 5.03659,12.5897 6.34964,6.40628 11.3096,7.23172 13.95026,7.33765 5.843783,0.23376 13.055393,-1.45546 17.337803,-3.25061 4.14358,-1.76775 11.40454,-5.4749 14.15292,-10.88225 0.58252,-1.15596 2.17313,-3.09721 1.17429,-7.89278 -0.75791,-3.68887 -3.10642,-4.98001 -5.96982,-4.77545 -2.86347,0.19359 -11.53238,2.50553 -15.72531,3.79482 -4.19471,1.27284 -12.834423,3.90252 -16.600043,4.71884 -3.75641,0.81445 -12.03818,-0.37799 -13.35669,-1.63992 z"
   id="path4" />
<path
   style="fill:#020203"
   d="m 183.1847,291.03373 c -1.65821,-0.6026 -35.96494,-14.81406 -40.82807,-17.14243 -3.97925,-1.91376 -13.73654,-6.03915 -18.32761,-7.91278 12.93125,-19.93836 21.09427,-34.98432 22.18085,-37.27612 2.01065,-4.19294 15.69788,-30.97579 16.01746,-32.62484 0.31048,-1.67096 0.69943,-7.84346 0.39813,-9.30989 -0.3013,-1.49563 -5.31964,1.37877 -12.13315,3.68894 -6.82446,2.30095 -19.79407,10.73611 -24.80328,11.79347 -5.02747,1.04823 -21.09427,7.13496 -29.315743,9.86319 -8.22149,2.72838 -23.77328,7.47459 -30.17041,9.20216 -6.40628,1.72757 -11.99803,1.86454 -15.58102,2.95114 0,0 0.47665,5.01835 1.42807,6.5232 0.94047,1.5047 4.32989,5.19363 8.27081,6.22357 3.94089,1.03726 10.46402,0.62088 13.43521,-0.0584 2.96939,-0.69034 8.11377,-3.20313 8.80402,-4.30063 0.69769,-1.11585 -0.35968,-4.5527 0.81448,-5.5918 1.18525,-1.0281 16.842963,-4.6878 22.754313,-6.47384 5.91137,-1.81702 28.53961,-9.61121 31.60763,-9.21306 -0.97156,3.22319 -19.17312,39.27574 -25.03515,50.03193 -5.86393,10.75446 -39.925943,58.06907 -47.177713,66.40744 -5.50415,6.33869 -18.84256,22.55884 -23.46281,26.21851 1.16508,0.32147 9.42491,-0.38705 10.92968,-1.31845 9.37749,-5.77628 24.99685,-25.21964 30.02611,-31.142 14.94922,-17.53137 28.083163,-35.94659 38.497873,-51.7504 h 0.0109 c 2.02887,0.84549 18.4335,14.21134 22.71405,17.17347 4.28064,2.9602 21.17282,12.38513 24.83249,13.94836 3.6597,1.58328 17.72498,8.06812 18.31668,5.87305 0.59165,-2.21335 -2.54391,-15.15369 -4.20385,-15.78375 z"
   id="path6" />
<path
   style="clip-rule:evenodd;fill:#020203;fill-rule:evenodd"
   d="m 103.90995,469.69495 c 3.28714,2.00879 6.39166,3.65234 9.86142,5.2959 6.93948,3.46979 14.79208,7.12213 22.27944,9.86145 10.22666,3.83496 20.45328,6.93951 30.67994,9.31354 5.66116,1.27832 11.87017,2.37402 17.8966,3.28711 0.54785,0 16.80091,2.00878 20.08805,2.00878 h 16.43566 c 6.39164,-0.54785 12.41806,-0.91308 18.8097,-1.82617 5.11334,-0.73047 10.7745,-1.64355 16.25305,-2.92187 4.01761,-0.91309 8.21783,-1.82617 12.23544,-3.10456 3.83499,-1.0957 8.21784,-2.55664 12.41806,-4.01757 2.73929,-0.91309 5.6612,-2.19141 8.58307,-3.28711 2.37406,-1.09577 5.29596,-2.37409 8.03522,-3.46979 3.28714,-1.46094 7.12213,-3.46973 10.7745,-5.2959 2.92191,-1.461 6.20902,-3.28717 9.31357,-5.11334 2.37403,-1.27835 7.8526,-5.47858 10.77448,-5.47858 3.28711,0 5.47857,2.92191 5.47857,5.47858 0,5.29596 -7.12213,6.93951 -10.4093,9.31354 -3.46972,2.37402 -7.66998,4.20025 -11.32232,6.20904 -7.30475,3.83496 -14.79212,7.12213 -21.91422,9.86139 -9.31357,3.46973 -19.54019,6.7569 -28.67111,8.9483 -3.46976,0.73047 -6.93952,1.64356 -10.40927,2.19141 -1.82617,0.36523 -20.81852,3.28717 -26.11444,3.28717 H 200.8804 c -6.39166,-0.54785 -13.14852,-1.27832 -19.54019,-2.19147 -5.66116,-0.91308 -11.68759,-2.00879 -17.34875,-3.28711 -4.38285,-0.91308 -9.13092,-2.1914 -13.33115,-3.46972 -7.30475,-2.00885 -14.42688,-4.56549 -21.36639,-7.30475 -12.60068,-4.74811 -25.74921,-10.95715 -38.167273,-19.17499 -2.19141,-1.46094 -2.37402,-2.92187 -2.37402,-4.56543 0,-2.73929 2.00879,-5.29596 5.29593,-5.29596 2.9219,0 8.765683,4.20023 9.861393,4.74811 z"
   id="path8" />
<g
   id="g14"
   transform="translate(-200.77905,-42.519653)">
	<path
   style="fill:#020203"
   d="M 639.83838,180.40259 599.07013,167.42688 V 48.363464 c 0,-3.469726 -2.5567,-5.843811 -5.84381,-5.843811 -2.5567,0 -84.91767,28.305909 -91.49188,30.679932 -22.33448,7.444824 -86.79865,29.733455 -86.79865,29.733455 l -6e-5,2.5e-4 c -1.03363,0.29645 -2.6377,0.78717 -4.74115,1.44824 L 252.85425,48.849976 c -1.18817,-0.419373 -2.43396,0.462097 -2.43396,1.722045 v 2 104.723879 c -24.40534,8.17102 -41.80853,14.01983 -42.70172,14.33508 -1.64356,0.54785 -4.20026,0.91309 -5.6612,2.92188 -0.73047,0.73047 -0.91308,2.00885 -1.27832,2.92193 v 306.98175 c 0,0.36524 0.18262,0.54785 0.18262,0.73047 1.0957,2.37409 3.10449,3.83502 5.29596,3.83502 2.73926,0 208.36774,-69.02984 212.93323,-70.85601 0.21563,-0.0719 0.45837,-0.24097 0.69714,-0.43805 l 218.84198,69.75177 c 1.17792,0.37548 2.38074,-0.50354 2.38074,-1.73993 V 182.14276 c 0,-0.79516 -0.51459,-1.49896 -1.27234,-1.74017 z M 410.97302,409.40033 211.91876,475.69086 V 182.04022 L 410.97302,115.74969 Z M 587.93036,55.668213 V 163.88129 L 423.43817,111.52667 Z m -20.24329,329.599117 -10.52063,-38.42846 -60.51611,-18.34223 -13.01343,31.30445 -29.29199,-8.88611 62.17798,-152.58704 28.50854,8.63605 51.93854,187.18768 z"
   id="path10" />
	<polygon
   style="fill:#020203"
   points="529.55627,247.88336 507.83752,300.37885 547.76703,312.48285 "
   id="polygon12" />
</g>
</svg>
