<!-- Generated with https://svgsprit.es/, then slightly cleaned up by hand -->
<svg width="0" height="0" xmlns="http://www.w3.org/2000/svg" xmlns:xlink="http://www.w3.org/1999/xlink" style="display: none;">
<symbol viewBox="0 0 60 30" id="en">
<clipPath id="a"><path d="M30 15h30v15zv15H0zH0V0zV0h30z"></path></clipPath>
<path d="M0 0v30h60V0z" fill="#00247d"></path>
<path d="M0 0l60 30m0-30L0 30" stroke="#fff" stroke-width="6"></path>
<path d="M0 0l60 30m0-30L0 30" clip-path="url(#a)" stroke="#cf142b" stroke-width="4"></path>
<path d="M30 0v30M0 15h60" stroke="#fff" stroke-width="10"></path>
<path d="M30 0v30M0 15h60" stroke="#cf142b" stroke-width="6"></path>
</symbol>
<symbol viewBox="0 0 18 11" id="fi">
<path fill="#fff" d="M0 0h18v11H0z"></path><path fill="#003580" d="M0 4h18v3H0z"></path><path fill="#003580" d="M5 0h3v11H5z"></path>
</symbol>
<symbol viewBox="0 0 16 10" id="se">
<path fill="#006aa7" d="M0 0h16v10H0z"></path><path fill="#fecc00" d="M5 0h2v10H5z"></path><path fill="#fecc00" d="M0 4h16v2H0z"></path>
</symbol>
<symbol viewBox="0 0 5 3" id="de">
<path d="M0 0h5v3H0z"></path><path fill="#D00" d="M0 1h5v2H0z"></path><path fill="#FFCE00" d="M0 2h5v1H0z"></path>
</symbol></svg>
